<?xml version="1.0" encoding="iso-8859-1"?>
<!-- Generator: Adobe Illustrator 19.0.0, SVG Export Plug-In . SVG Version: 6.00 Build 0)  -->
<svg version="1.1" id="Layer_1" xmlns="http://www.w3.org/2000/svg" xmlns:xlink="http://www.w3.org/1999/xlink" x="0px" y="0px"
	 viewBox="0 0 512 512" style="enable-background:new 0 0 512 512;" xml:space="preserve">
<g fill="#3f51b5">
		<path d="M437.333,469.333H288v-10.667c0-5.896-4.771-10.667-10.667-10.667h-10.667v-24.01
			c21.206-9.719,41.279-47.372,53.063-101.729c0.688-3.156-0.083-6.448-2.104-8.958c-2.042-2.51-5.083-3.969-8.313-3.969H202.688
			c-3.229,0-6.271,1.458-8.313,3.969c-2.021,2.51-2.792,5.802-2.104,8.958c11.784,54.357,31.857,92.01,53.063,101.729V448h-10.667
			c-5.896,0-10.667,4.771-10.667,10.667v10.667H74.667C68.771,469.333,64,474.104,64,480c0,5.896,4.771,10.667,10.667,10.667H224
			v10.667c0,5.896,4.771,10.667,10.667,10.667h42.667c5.896,0,10.667-4.771,10.667-10.667v-10.667h149.333
			c5.896,0,10.667-4.771,10.667-10.667C448,474.104,443.229,469.333,437.333,469.333z"/>
		<path d="M317.708,410.49c2.063,2.333,5,3.604,8,3.604c1.229,0,2.479-0.208,3.667-0.656
			c44.458-16.302,82.729-47.479,107.771-87.813c2.042-3.281,2.146-7.427,0.25-10.813c-1.875-3.385-5.438-5.479-9.313-5.479h-75.292
			c-5.104,0-9.5,3.615-10.479,8.635c-6.188,31.865-14.979,58.969-26.083,80.573C314.208,402.458,314.813,407.198,317.708,410.49z"
			/>
		<path d="M194.375,113.365c2.042,2.51,5.083,3.969,8.313,3.969h106.625c3.229,0,6.271-1.458,8.313-3.969
			c2.021-2.51,2.792-5.802,2.104-8.958C305.979,40.979,280.958,0,256,0s-49.979,40.979-63.729,104.406
			C191.583,107.563,192.354,110.854,194.375,113.365z"/>
		<path d="M316.396,288c5.417,0,9.958-4.052,10.604-9.427c2.438-20.927,3.667-42.875,3.667-65.24
			c0-22.365-1.229-44.313-3.667-65.24c-0.646-5.375-5.188-9.427-10.604-9.427H195.604c-5.417,0-9.958,4.052-10.604,9.427
			c-2.438,20.927-3.667,42.875-3.667,65.24c0,22.365,1.229,44.313,3.667,65.24c0.646,5.375,5.188,9.427,10.604,9.427H316.396z"/>
		<path d="M160.75,284.458c2.021-2.26,3-5.26,2.667-8.271c-2.271-20.906-3.417-42.052-3.417-62.854
			c0-20.802,1.146-41.948,3.417-62.854c0.333-3.01-0.646-6.01-2.667-8.271c-2.021-2.25-4.917-3.542-7.938-3.542h-89
			c-4.583,0-8.667,2.938-10.125,7.292c-7.313,21.969-11.021,44.635-11.021,67.375c0,22.74,3.708,45.406,11.021,67.375
			c1.458,4.354,5.542,7.292,10.125,7.292h89C155.833,288,158.729,286.708,160.75,284.458z"/>
		<path d="M83.917,117.333h75.292c5.104,0,9.5-3.615,10.479-8.635c6.188-31.865,14.979-58.969,26.083-80.573
			c2.021-3.917,1.417-8.656-1.479-11.948c-2.896-3.281-7.563-4.479-11.667-2.948c-44.458,16.302-82.729,47.479-107.771,87.813
			c-2.042,3.281-2.146,7.427-0.25,10.813C76.479,115.24,80.042,117.333,83.917,117.333z"/>
		<path d="M458.313,145.958c-1.458-4.354-5.542-7.292-10.125-7.292h-89c-3.021,0-5.917,1.292-7.938,3.542
			c-2.021,2.26-3,5.26-2.667,8.271c2.271,20.906,3.417,42.052,3.417,62.854c0,20.802-1.146,41.948-3.417,62.854
			c-0.333,3.01,0.646,6.01,2.667,8.271c2.021,2.25,4.917,3.542,7.938,3.542h89c4.583,0,8.667-2.938,10.125-7.292
			c7.313-21.969,11.021-44.635,11.021-67.375C469.333,190.594,465.625,167.927,458.313,145.958z"/>
		<path d="M159.208,309.333H83.917c-3.875,0-7.438,2.094-9.313,5.479c-1.896,3.385-1.792,7.531,0.25,10.813
			c25.042,40.333,63.313,71.51,107.771,87.813c1.188,0.448,2.438,0.656,3.667,0.656c3,0,5.938-1.271,8-3.604
			c2.896-3.292,3.5-8.031,1.479-11.948c-11.104-21.604-19.896-48.708-26.083-80.573
			C168.708,312.948,164.313,309.333,159.208,309.333z"/>
		<path d="M342.313,108.698c0.979,5.021,5.375,8.635,10.479,8.635h75.292c3.875,0,7.438-2.094,9.313-5.479
			c1.896-3.385,1.792-7.531-0.25-10.813c-25.042-40.333-63.313-71.51-107.771-87.813c-4.063-1.531-8.75-0.333-11.667,2.948
			c-2.896,3.292-3.5,8.031-1.479,11.948C327.333,49.729,336.125,76.833,342.313,108.698z"/>
</g>
</svg>
