<?xml version="1.0" encoding="utf-8"?>
<!-- Svg Vector Icons : http://www.sfont.cn -->
<svg version="1.1" id="图层_1" xmlns="http://www.w3.org/2000/svg" xmlns:xlink="http://www.w3.org/1999/xlink" 
x="0px" y="0px" viewBox="0 0 895.3 1341.9" style="enable-background:new 0 0 895.3 1341.9;" xml:space="preserve">
 <style type="text/css">
	.st0{fill-rule:evenodd;clip-rule:evenodd;fill:#3f51b5;}
</style>
<g transform="translate(0.000000,511.000000) scale(0.100000,-0.100000)">
<path   class="st0" d="M4913.7,4844c-30.7-19.2-1106.3-1087.1-2389-2371.7C-88.6-146.9,103.1,
66,103.1-229.3c0-126.6,7.7-172.6,49.9-262.7c151.5-324,542.6-462.1,
862.8-301c57.5,26.8,686.4,642.3,2034.3,1988.3L5000,3145.2l1951.8-1949.9C8318.9-169.9,
8926.7-766.2,8984.2-794.9c320.2-159.2,713.3-19.2,862.8,302.9c42.2,90.1,49.9,136.1,49.9,
262.7c0,295.3,191.7,80.5-2431.2,2709.2C6177.3,3770.3,5101.6,4838.2,5072.9,4853.5C5005.8,
4888.1,4982.7,4888.1,4913.7,4844z"/>
<path  class="st0"  d="M3086.5,733.2l-1902-1902v-1691.1V-4551l46-53.7l46-53.7H5000h3723.5l46,53.7l46,53.7v1691.1v1691.1L6911.6,
 735.1c-1045,1045-1905.8,1902-1911.6,1902S4133.4,1780.1,3086.5,733.2z M5260.8-467.1c65.2-30.7,161-99.7,
 218.6-157.2l103.6-103.5l-140-5.8c-122.7-5.7-151.5,1.9-255,53.7c-67.1,32.6-147.6,
 57.5-187.9,57.5s-120.8-24.9-187.9-57.5c-103.5-51.8-132.3-59.4-255-53.7l-140,5.8l103.5,
 103.5C4735.4-409.5,5013.4-350.1,5260.8-467.1z M3849.6-2069.9v-1217.5h-360.5c-335.5,
 0-366.2,3.8-444.8,44.1c-159.1,78.6-153.4,36.4-153.4,1183c0,970.2,1.9,1008.5,38.3,1069.9c78.6,126.6,
 118.9,138.1,542.6,138.1h377.7V-2069.9z M5939.5-2069.9v-1217.5H5000h-939.5v1217.5v1217.5H5000h939.5V-2069.9z M7003.6-910c109.3-101.6,
 105.5-69,105.5-1154.3c0-1140.8,5.7-1100.5-153.4-1181.1c-78.6-38.3-109.3-42.2-444.8-42.2h-360.4V-2068v1217.5l400.7-5.8C6949.9-862,6953.8-862,7003.6-910z"/>
 </g>
</svg>