<?xml version="1.0" encoding="utf-8"?>
<!-- Generator: Adobe Illustrator 19.0.0, SVG Export Plug-In . SVG Version: 6.00 Build 0)  -->
<svg version="1.1" id="图层_1" xmlns="http://www.w3.org/2000/svg" xmlns:xlink="http://www.w3.org/1999/xlink" x="0px" y="0px"
	 viewBox="0 0 595.3 841.9" style="enable-background:new 0 0 595.3 841.9;" xml:space="preserve">
<style type="text/css">
	.st0{fill-rule:evenodd;clip-rule:evenodd;fill:#3f51b5;}
</style>
<g>
	<path class="st0" d="M104.5,211.1c-23.6,0-42.9,19.3-42.9,42.9V297c0,23.6,19.3,42.9,42.9,42.9h386.4c23.6,0,42.9-19.3,42.9-42.9
		V254c0-23.6-19.3-42.9-42.9-42.9H104.5L104.5,211.1z M506.9,257.7v38.1c0,7.6-9.1,20.2-22,20.2H107.8c-15.4,0-21-12.8-21-22.8
		v-35.5c0-7.7,9.1-21.2,21-21.2h377.1C497.4,236.5,506.9,245,506.9,257.7L506.9,257.7L506.9,257.7z M465,296.9
		c11.8,0,21.4-9.6,21.4-21.5c0-11.8-9.6-21.4-21.4-21.4c-11.9,0-21.5,9.6-21.5,21.5S453.2,297,465,296.9L465,296.9L465,296.9z
		 M104.5,363.7c-23.6,0-42.9,19.3-42.9,42.9v42.9c0,23.6,19.3,42.9,42.9,42.9h386.4c23.6,0,42.9-19.3,42.9-42.9v-42.9
		c0-23.6-19.3-42.9-42.9-42.9H104.5L104.5,363.7z M506.9,410.3v38.1c0,7.6-9.1,20.2-22,20.2H107.8c-15.4,0-21-12.8-21-22.8v-35.5
		c0-7.7,9.1-21.2,21-21.2h377.1C497.4,389.1,506.9,397.5,506.9,410.3L506.9,410.3L506.9,410.3z M465,449.5
		c11.8,0,21.4-9.6,21.4-21.5c0-11.8-9.6-21.5-21.4-21.5c-11.9,0-21.5,9.6-21.5,21.5C443.6,439.9,453.2,449.5,465,449.5L465,449.5
		L465,449.5z M104.5,516.2c-23.6,0-42.9,19.3-42.9,42.9v42.9c0,23.6,19.3,42.9,42.9,42.9h386.4c23.6,0,42.9-19.3,42.9-42.9v-42.9
		c0-23.6-19.3-42.9-42.9-42.9H104.5L104.5,516.2z M506.9,562.8v38.1c0,7.6-9.1,20.2-22,20.2H107.8c-15.4,0-21-12.8-21-22.8v-35.5
		c0-7.7,9.1-21.2,21-21.2h377.1C497.4,541.7,506.9,550.1,506.9,562.8L506.9,562.8z M465.1,602.1c11.8,0,21.4-9.6,21.4-21.4
		c0-11.8-9.6-21.5-21.4-21.5c-11.9,0-21.5,9.6-21.5,21.5C443.6,592.5,453.2,602.1,465.1,602.1L465.1,602.1L465.1,602.1z"/>
</g>
</svg>
