<?xml version="1.0" encoding="utf-8"?>
<!-- Generator: Adobe Illustrator 19.0.0, SVG Export Plug-In . SVG Version: 6.00 Build 0)  -->
<svg version="1.1" id="图层_1" xmlns="http://www.w3.org/2000/svg" xmlns:xlink="http://www.w3.org/1999/xlink" x="0px" y="0px"
	 viewBox="0 0 495.3 741.9" style="enable-background:new 0 0 495.3 741.9;" xml:space="preserve">
<style type="text/css">
	.st0{fill-rule:evenodd;clip-rule:evenodd;fill:#3f51b5;}
</style>
<g>
	<path class="st0" d="M136.8,412.3h151.1v91c0,5.2,4.2,9.4,9.4,9.4l0,0c5.2,0,9.4-4.2,9.4-9.4v-91h151.1v100.5
		c0,5.2,4.2,9.4,9.4,9.4l0,0c5.2,0,9.4-4.2,9.4-9.4V408.9c0-8.6-7-15.5-15.5-15.5H306.8v-41.2c0-5.2-4.2-9.4-9.4-9.4l0,0
		c-5.2,0-9.4,4.2-9.4,9.4v41.2H133.4c-8.6,0-15.5,7-15.5,15.5v103.8c0,5.2,4.2,9.4,9.4,9.4l0,0c5.2,0,9.4-4.2,9.4-9.4V412.3
		L136.8,412.3 M174.5,537.4H80.1c-5.2,0-9.4,4.2-9.4,9.4v91.6c0,5.2,4.2,9.4,9.4,9.4h94.4c5.2,0,9.4-4.2,9.4-9.4v-91.6
		C184,541.6,179.8,537.4,174.5,537.4L174.5,537.4 M344.6,537.4h-94.4c-5.2,0-9.4,4.2-9.4,9.4v91.6c0,5.2,4.2,9.4,9.4,9.4h94.4
		c5.2,0,9.4-4.2,9.4-9.4v-91.6C354,541.6,349.8,537.4,344.6,537.4L344.6,537.4 M514.6,537.4h-94.4c-5.2,0-9.4,4.2-9.4,9.4v91.6
		c0,5.2,4.2,9.4,9.4,9.4h94.4c5.2,0,9.4-4.2,9.4-9.4v-91.6C524,541.6,519.8,537.4,514.6,537.4L514.6,537.4 M221.8,327.3h151.1
		c5.2,0,9.4-4.2,9.4-9.4V204.8c0-5.2-4.2-9.4-9.4-9.4H221.8c-5.2,0-9.4,4.2-9.4,9.4v113.1C212.3,323.1,216.6,327.3,221.8,327.3
		L221.8,327.3 M221.8,327.3L221.8,327.3z"/>
</g>
</svg>
