<?xml version="1.0" encoding="utf-8"?>
<!-- Svg Vector Icons : http://www.sfont.cn -->
<!--<!DOCTYPE svg PUBLIC "-//W3C//DTD SVG 1.1//EN" "http://www.w3.org/Graphics/SVG/1.1/DTD/svg11.dtd">-->
<svg version="1.1" id="图层_1"  xmlns="http://www.w3.org/2000/svg" xmlns:xlink="http://www.w3.org/1999/xlink" x="0px" y="0px" 
viewBox="0 0 895.3 1341.9" style="enable-background:new 0 0 895.3 1341.9;"  xml:space="preserve">
<style type="text/css">
	.st0{fill-rule:evenodd;clip-rule:evenodd;fill:#3f51b5;}
</style>
<g>
  <path  class="st0" d="M966,477.1h-68.8c-8.7-50.3-54.6-90.7-109.3-90.7c-54.6,
            0-100.5,36.1-109.3,90.7H32.9c-14.2,0-22.9,8.7-22.9,22.9c0,14.2,8.7,
           22.9,22.9,22.9h646.8c8.7,50.3,54.6,90.7,109.3,90.7c54.6,0,100.5-36.1,
           109.3-90.7h68.8c14.2,0,22.9-8.7,22.9-22.9C988.9,485.8,974.7,477.1,966,
           477.1z M787.9,567.7c-36.1,0-68.8-31.7-68.8-67.7s31.7-68.8,68.8-68.8c36.1,
           0,68.8,31.7,68.8,68.8C852.3,536.1,825,567.7,787.9,567.7z M32.9,190.8h113.6c8.7,
          50.3,54.6,90.7,109.3,90.7c54.6,0,100.5-36.1,109.3-90.7H966c14.2,0,22.9-8.7,
          22.9-22.9c0-14.2-8.7-22.9-22.9-22.9H360.7c-8.7-50.3-54.6-90.7-109.3-90.7c-54.6,
          0-100.5,36.1-109.3,90.7H32.9c-14.2,0-22.9,8.7-22.9,22.9C10,176.6,18.7,190.8,32.9,
        190.8z M255.8,99c36.1,0,68.8,31.7,68.8,67.7c0,36.1-31.7,68.8-68.8,68.8c-37.1,
         0-68.8-31.7-68.8-68.8C187,129.6,214.3,99,255.8,99z M966,809.2H542.1c-8.7-50.3-54.6-90.7-109.3-90.7c-54.6,
         0-100.5,36.1-109.3,90.7H32.9c-14.2,0-22.9,8.7-22.9,22.9c0,13.1,8.7,22.9,22.9,
         22.9h291.7c8.7,50.3,54.6,90.7,109.3,90.7c54.6,0,100.5-36.1,109.3-90.7H966c14.2,
         0,22.9-8.7,22.9-22.9C988.9,823.4,974.7,809.2,966,809.2z M432.8,
         901c-36.1,0-67.7-31.7-67.7-67.7s31.7-68.8,67.7-68.8c36.1,0,68.8,
        31.7,68.8,68.8C497.3,869.3,470,901,432.8,901z"/>
</g>
</svg>