<?xml version="1.0" encoding="utf-8"?>
<!-- Svg Vector Icons : http://www.sfont.cn -->
<!--<!DOCTYPE svg PUBLIC "-//W3C//DTD SVG 1.1//EN" "http://www.w3.org/Graphics/SVG/1.1/DTD/svg11.dtd">-->
<svg version="1.1" id="图层_1" xmlns="http://www.w3.org/2000/svg" xmlns:xlink="http://www.w3.org/1999/xlink" x="0px" y="0px" 
 viewBox="0 0 895.3 1341.9" style="enable-background:new 0 0 895.3 1341.9;" xml:space="preserve">
 <style type="text/css">
	.st0{fill-rule:evenodd;clip-rule:evenodd;fill:#3f51b5;}
</style>
<!--<metadata> Svg Vector Icons : http://www.sfont.cn </metadata>-->
<g transform="matrix(1 0 0 -1 0 1638)">
<g></g>
<path  class="st0" d="M912.4,1594H448.1c-21.2,0-39.3-7.6-54.4-22.7s-22.7-33.4-22.7-54.9v-154.6c0-7.1,
2.5-13.1,7.6-18.1c5-5,11.1-7.6,18.1-7.6s13.1,2.5,18.1,7.6c5,5,7.6,11.1,7.6,18.1v154.6c0,
7.1,2.5,13.1,7.6,18.1c5,5,11.1,7.6,18.1,7.6h390.3l-197.9-84.6c-17.8-7.7-32.8-20.8-45.1-39.3c-12.3-18.5-18.4-37.3-18.4-56.4v-490H448.1c-7.1,
0-13.1,2.5-18.1,7.6c-5,5-7.6,11.1-7.6,18.1v155.1c0,7.1-2.5,13.1-7.6,18.1c-5,5-11.1,
7.6-18.1,7.6s-13.1-2.5-18.1-7.6c-5-5-7.6-11.1-7.6-18.1V897.5c0-21.2,7.6-39.3,22.7-54.4s33.2-22.7,
54.4-22.7h128.9v-77.6c0-11.1,2.3-21.2,6.8-30.2s10.8-16.3,18.9-21.7c4.4-3,9.1-5.3,14.4-6.8c5.2-1.5,
10.5-2.3,15.9-2.3c4.7,0,9.3,0.5,13.8,1.5s9.1,2.5,13.8,4.5l265.9,114.3c17.8,7.4,32.8,20.3,45.1,38.8c12.3,
18.5,18.4,37.3,18.4,56.4v618.9c0,21.5-7.6,39.8-22.7,54.9C952.2,1586.5,933.9,1594,912.4,1594L912.4,1594z M938.1,
897.5c0-9.1-3.2-18.5-9.6-28.2c-6.4-9.7-13.8-16.3-22.2-19.6L640.5,735.4c-2.7-1-4.8-1.5-6.3-1.5h-3.3c-0.3,0.3-0.8,
1.3-1.3,2.8c-0.5,1.5-0.8,3.6-0.8,6.3v618.9c0,9.1,3.2,18.5,9.6,28.2s13.8,16.5,22.2,20.1l275,117.8c0.7-1.7,1.3-3.5,
1.8-5.5c0.5-2,0.8-4,0.8-6V897.5L938.1,897.5z M440.6,1225.4L286,1380c-5,5-11.1,7.6-18.1,
7.6s-13.1-2.5-18.1-7.6c-5-5-7.6-11.1-7.6-18.1s2.5-13.1,7.6-18.1l110.8-110.8H35.7c-7.1,
0-13.1-2.5-18.1-7.6c-5-5-7.6-11.1-7.6-18.1s2.5-13.1,7.6-18.1c5-5,11.1-7.6,18.1-7.6h324.8l-110.8-110.8c-5-5-7.6-11.2-7.6-18.4c0-7.2,2.5-13.3,
7.6-18.4c2.4-2.4,5.1-4.2,8.3-5.5s6.5-2,9.8-2s6.6,0.7,9.8,2c3.2,1.3,6,3.2,8.3,5.5l154.6,155.1c5,
5,7.6,11.1,7.6,18.1S445.6,1220.3,440.6,1225.4L440.6,1225.4z"/>
</g>
</svg>