<?xml version="1.0" encoding="utf-8"?>
<!-- Svg Vector Icons : http://www.sfont.cn -->
<svg version="1.1" id="图层_1" xmlns="http://www.w3.org/2000/svg" xmlns:xlink="http://www.w3.org/1999/xlink" x="0px" y="0px" 
viewBox="0 0 895.3 1341.9" style="enable-background:new 0 0 895.3 1341.9;" xml:space="preserve">
 <style type="text/css">
	.st0{fill-rule:evenodd;clip-rule:evenodd;fill:#3f51b5;}
</style>
<g>
<path   class="st0" d="M98.5,411.4C49.7,411.4,10,451.1,10,500c0,48.8,39.7,88.6,88.5,88.6c48.9,0,88.6-39.8,
88.6-88.6C187.2,451.1,147.4,411.4,98.5,411.4z M98.5,552.1c-28.7,0-52.1-23.4-52.1-52.2c0-28.8,
23.4-52.1,52.1-52.1c28.8,0,52.2,23.4,52.2,52.1C150.7,528.7,127.3,552.1,98.5,552.1z M98.5,
59.9C49.7,59.9,10,99.6,10,148.4c0,48.9,39.7,88.6,88.5,88.6c48.9,0,88.6-39.8,88.6-88.6C187.2,
99.6,147.4,59.9,98.5,59.9z M98.5,200.6c-28.7,0-52.1-23.4-52.1-52.3c0-28.7,23.4-52,52.1-52c28.8,
0,52.2,23.3,52.2,52C150.7,177.2,127.3,200.6,98.5,200.6z M98.5,762.9c-48.8,0-88.5,39.7-88.5,88.6c0,
48.8,39.7,88.5,88.5,88.5c48.9,0,88.6-39.7,88.6-88.5C187.2,802.7,147.4,762.9,98.5,762.9z M98.5,
903.7c-28.7,0-52.1-23.4-52.1-52.1c0-28.9,23.4-52.2,52.1-52.2c28.8,0,52.2,23.4,52.2,52.2C150.7,
880.3,127.3,903.7,98.5,903.7z M971.8,833.4H309.5c-10.1,0-18.2,8.2-18.2,18.2c0,10,8.1,18.2,18.2,
18.2h662.3c10.1,0,18.2-8.2,18.2-18.2C990,841.6,981.9,833.4,971.8,833.4z M971.8,481.7H309.5c-10.1,
0-18.2,8.2-18.2,18.3c0,10,8.1,18.1,18.2,18.1h662.3c10.1,0,18.2-8.2,18.2-18.1C990,489.9,981.9,
481.7,971.8,481.7z M309.5,166.6h662.3c10.1,0,18.2-8.2,18.2-18.2c0-10-8.1-18.2-18.2-18.2H309.5c-10.1,
0-18.2,8.2-18.2,18.2C291.3,158.4,299.5,166.6,309.5,166.6z"/>
</g>
</svg>