<?xml version="1.0" encoding="utf-8"?>
<!-- Generator: Adobe Illustrator 19.0.0, SVG Export Plug-In . SVG Version: 6.00 Build 0)  -->
<svg version="1.1" id="图层_1" xmlns="http://www.w3.org/2000/svg" xmlns:xlink="http://www.w3.org/1999/xlink" x="0px" y="0px"
	 viewBox="0 0 595.3 841.9" style="enable-background:new 0 0 595.3 841.9;" xml:space="preserve">
<style type="text/css">
	.st0{fill-rule:evenodd;clip-rule:evenodd;fill:#3f51b5;}
</style>
<g>
	<path class="st0" d="M218.6,590.6c-5.5,47.2-43.4,84.7-87.9,84.7c-49,0-89.1-43.6-89.1-96.8c0-53.2,40.1-96.8,89.1-96.8
		c8.9,0,16.7,1.2,24.5,3.6l83.5-148.8c-20.2-19.2-31.5-45.9-31.2-73.8c0-53.2,40.1-96.8,89.1-96.8c49,0,89.1,43.6,89.1,96.8
		c0,29-12.2,55.6-31.2,73.8L439,485.3c22.8-7.5,47.7-4.4,67.9,8.5c40.1,24.2,56.8,77.4,39,122.2c-1,2.8-3.2,5-5.9,6.2
		c-2.7,1.1-5.9,1.1-8.6-0.1c-5.5-2.4-7.8-9.7-5.5-15.7c13.3-33.9,1.1-73.8-29-91.9c-32.3-19.4-73.5-7.3-91.3,27.8
		c-17.8,35.1-6.7,79.8,26.7,99.2c17.8,10.9,40.1,12.1,59,3.6c2.7-1.2,5.8-1.3,8.6-0.1c2.8,1.2,4.9,3.4,5.9,6.2
		c2.2,6,0,13.3-5.6,15.7c-25.2,11.1-54.3,9.3-77.9-4.8c-25.6-15.7-42.3-43.6-45.7-72.6H218.6L218.6,590.6L218.6,590.6L218.6,590.6z
		 M218.6,566.4h157c1.1-12.1,4.5-23,10-35.1c7.8-15.7,18.9-27.8,32.3-36.3l-82.4-145.2c-12.1,6.2-25.4,9.5-39,9.7
		c-13.4,0-27.8-3.6-39-9.7L175.2,495C199.7,510.7,215.3,536.1,218.6,566.4L218.6,566.4L218.6,566.4z M130.7,651
		c36.7,0,66.8-32.6,66.8-72.6c0-39.9-30.1-72.6-66.8-72.6c-36.7,0-66.8,32.7-66.8,72.6C63.9,618.4,94,651.1,130.7,651L130.7,651
		L130.7,651z"/>
</g>
</svg>
