<?xml version="1.0" encoding="utf-8"?>
<!-- Svg Vector Icons : http://www.sfont.cn -->
<!--<!DOCTYPE svg PUBLIC "-//W3C//DTD SVG 1.1//EN" "http://www.w3.org/Graphics/SVG/1.1/DTD/svg11.dtd">-->
<svg version="1.1" id="图层_1" xmlns="http://www.w3.org/2000/svg" xmlns:xlink="http://www.w3.org/1999/xlink" x="0px" y="0px"
 viewBox="0 0 895.3 1341.9" style="enable-background:new 0 0 895.3 1341.9;" xml:space="preserve">
 <style type="text/css">
	.st0{fill-rule:evenodd;clip-rule:evenodd;fill:#3f51b5;}
</style>
<!--<metadata> Svg Vector Icons : http://www.sfont.cn </metadata>-->
<g>
<path  class="st0" d="M520.4,10H10v387.9h510.4V10z M479.6,357.1H50.8V50.8h428.7V357.1z"/>
<path  class="st0" d="M602.1,10v510.4H990V10H602.1z M949.2,479.6H642.9V50.8h306.2V479.6L949.2,479.6z"/>
 <path class="st0" d="M479.6,990H990V602.1H479.6V990z M520.4,642.9h428.7v306.3H520.4V642.9z"/>
 <path class="st0" d="M10,990h387.9V479.6H10V990z M50.8,520.4h306.3v428.8H50.8V520.4z"/>
 <path class="st0" d="M581.7,540.8h-20.4V418.3h-20.4v20.4H418.3v20.4h20.4v122.5h20.4v-20.4h122.5V540.8z M459.2,
 540.8v-81.7h81.7v81.7H459.2z"/>
 <path  class="st0" d="M71.2,908.3h265.4v20.4H71.2V908.3L71.2,908.3z"/>
 <path class="st0" d="M540.8,908.3h387.9v20.4H540.8V908.3L540.8,908.3z"/>
 </g>
</svg>