<?xml version="1.0" encoding="utf-8"?>
<!-- Generator: Adobe Illustrator 19.0.0, SVG Export Plug-In . SVG Version: 6.00 Build 0)  -->
<svg version="1.1" id="图层_1" xmlns="http://www.w3.org/2000/svg" xmlns:xlink="http://www.w3.org/1999/xlink" x="0px" y="0px"
	 viewBox="0 0 595.3 841.9" style="enable-background:new 0 0 595.3 841.9;" xml:space="preserve">
<style type="text/css">
	.st0{fill-rule:evenodd;clip-rule:evenodd;fill:#3f51b5;}
</style>
<g>
	<path class="st0" d="M481.7,176H113.5c-33.8,0-61.4,27.6-61.4,61.4v368.2c0,33.8,27.6,61.4,61.4,61.4h368.2
		c33.8,0,61.4-27.6,61.4-61.4V237.4C543.1,203.6,515.5,176,481.7,176L481.7,176z M512.4,605.6c0,16.9-13.8,30.7-30.7,30.7H113.5
		c-16.9,0-30.7-13.8-30.7-30.7V237.4c0-16.9,13.8-30.7,30.7-30.7h368.2c16.9,0,30.7,13.8,30.7,30.7V605.6L512.4,605.6z"/>
	<path class="st0" d="M451,544.2H280c-6.9-26.1-30.7-46-59.1-46s-52.2,19.9-59.1,46h-17.6c-8.4,0-15.3,6.9-15.3,15.3
		s6.9,15.3,15.3,15.3h17.6c6.9,26.1,30.7,46,59.1,46s52.2-19.9,59.1-46H451c8.4,0,15.3-6.9,15.3-15.3S459.5,544.2,451,544.2
		L451,544.2z M220.9,596.4c-20.7,0-36.8-16.1-36.8-36.8s16.1-36.8,36.8-36.8c20.7,0,36.8,16.1,36.8,36.8S241.6,596.4,220.9,596.4
		L220.9,596.4z"/>
	<path class="st0" d="M451,421.5h-33c-6.9-26.1-30.7-46-59.1-46c-28.4,0-52.2,19.9-59.1,46H144.2c-8.4,0-15.3,6.9-15.3,15.3
		c0,8.4,6.9,15.3,15.3,15.3h155.7c6.9,26.1,30.7,46,59.1,46c28.4,0,52.2-19.9,59.1-46h33c8.4,0,15.3-6.9,15.3-15.3
		C466.4,428.4,459.5,421.5,451,421.5L451,421.5z M359,473.7c-20.7,0-36.8-16.1-36.8-36.8c0-20.7,16.1-36.8,36.8-36.8
		s36.8,16.1,36.8,36.8C395.8,457.5,379.7,473.7,359,473.7L359,473.7z"/>
	<path class="st0" d="M451,298.8H280c-6.9-26.1-30.7-46-59.1-46s-52.2,19.9-59.1,46h-17.6c-8.4,0-15.3,6.9-15.3,15.3
		s6.9,15.3,15.3,15.3h17.6c6.9,26.1,30.7,46,59.1,46s52.2-19.9,59.1-46H451c8.4,0,15.3-6.9,15.3-15.3S459.5,298.8,451,298.8
		L451,298.8z"/>
</g>
</svg>
