<?xml version="1.0" encoding="utf-8"?>
<!-- Svg Vector Icons : http://www.sfont.cn -->
<!--<!DOCTYPE svg PUBLIC "-//W3C//DTD SVG 1.1//EN" "http://www.w3.org/Graphics/SVG/1.1/DTD/svg11.dtd">-->
<svg version="1.1" id="图层_1" xmlns="http://www.w3.org/2000/svg" xmlns:xlink="http://www.w3.org/1999/xlink" x="0px" y="0px" 
viewBox="0 0 895.3 1341.9" style="enable-background:new 0 0 895.3 1341.9;" xml:space="preserve">
<style type="text/css">
	.st0{fill-rule:evenodd;clip-rule:evenodd;fill:#3f51b5;}
</style>
<!--<metadata> Svg Vector Icons : http://www.sfont.cn </metadata>-->
<g transform="translate(0.000000,511.000000) scale(0.100000,-0.100000)">
    <path class="st0" d="M3644.2,4983.7c-250.1-72.5-493.3-222.1-654.5-404.4c-70.1-81.8-271.2-458.2-724.7-1362.8c-343.6-689.6-638.2-1297.4-654.5-1353.5c-63.1-236.1,
        63.1-439.5,303.9-490.9c168.3-35.1,6003.1-35.1,6171.4,0c240.8,51.4,367,254.8,303.9,490.9c-16.4,56.1-310.9,
    663.9-654.6,1353.5c-488.6,974.8-652.2,1278.7-734,1372.2c-126.2,140.3-353,292.2-542.3,364.7c-135.6,51.4-156.6,51.4-1423.6,
        56.1C4048.6,5011.8,3726,5007.1,3644.2,4983.7z"/>
    <path class="st0" d="M1334.6-1543c7-2536.3,9.4-2693,49.1-2795.8c60.8-154.3,205.7-308.6,362.3-385.7l133.2-65.4H5000h3120.8l133.2,65.4c156.6,
        77.1,301.6,231.4,362.3,385.7c39.7,102.9,42.1,259.5,46.7,2798.2l7,2688.3l-53.8-105.2c-60.8-114.5-163.6-196.4-294.6-233.8c-116.9-32.7-6526.7-32.7-6643.6,
        0c-130.9,37.4-233.8,119.2-294.5,231.4l-53.8,105.2L1334.6-1543z M2580.5,285c205.7-93.5,315.6-266.5,315.6-493.2c0-226.8-109.9-399.8-315.6-493.3c-224.4-105.2-432.5-65.4-610.1,
        116.9c-93.5,95.8-126.2,149.6-149.6,245.4C1715.6,102.7,2171.4,476.7,2580.5,285z M7746.7,285c137.9-63.1,247.8-180,301.6-320.3c35.1-93.5,
        37.4-282.8,32.7-2031.4l-7-1928.6l-65.4-109.9c-35.1-60.8-100.5-137.9-144.9-173c-168.3-128.6-144.9-126.2-2148.3-126.2c-1138.4,
        0-1881.8,9.4-1930.9,23.4c-151.9,42.1-287.5,147.3-362.3,282.8l-70.1,126.3v1940.3V-89l58.4,112.2c67.8,130.9,187,236.1,317.9,
        282.9c74.8,28.1,437.1,32.7,1996.4,32.7l1905.2,2.3L7746.7,285z"/>
    <path class="st0" d="M3751.7,11.5C3616.1-96,3620.8-7.2,3620.8-2019.9c0-2036.1-4.7-1966,144.9-2057.1c67.8-42.1,116.9-46.8,423.1-46.8c388.1,0,
    453.5,18.7,530.7,147.3c44.4,72.5,46.8,130.9,46.8,1940.3c0,2031.4,4.7,1940.3-130.9,2047.8c-58.4,44.4-93.5,49.1-441.8,49.1S3810.1,
    56,3751.7,11.5z M4333.8-3422.5c109.9-109.9,21-313.3-137.9-313.3c-142.6,0-233.8,135.6-173,261.8C4083.6-3350,4233.3-3326.6,
    4333.8-3422.5z"/>
    <path  class="st0" d="M5285.2,13.9c-149.6-91.2-144.9-21-144.9-2050.1c0-1741.6,2.3-1846.7,42.1-1923.9c74.8-140.3,154.3-163.6,
    544.7-163.6c315.6,0,346,4.7,420.8,53.8c42.1,28.1,91.2,79.5,107.6,109.9c23.4,44.4,30.4,483.9,30.4,1949.6v1888.8l-91.2,91.2l-91.2,
    91.2H5734C5402.1,60.6,5353,56,5285.2,13.9z M5860.3-3436.5c28.1-32.7,51.4-84.2,51.4-112.2c0-72.5-79.5-168.3-151.9-187c-67.8-16.3-184.7,35.1-208.1,91.2C5467.5-3424.8,5706-3265.8,5860.3-3436.5z"/>
    <path class="st0" d="M6797.7,6.9c-44.4-30.4-91.2-88.8-107.6-133.2c-21-60.8-28-554-28-1905.2c-2.3-1725.2,0-1828.1,42.1-1919.2c70.1-156.6,144.9-177.7,577.4-168.3l364.7,7l79.5,86.5l79.5,88.8v1895.8c0,1713.5-4.7,
    1902.9-37.4,1961.3C7693,44.3,7634.5,60.6,7237.1,60.6C6900.5,60.6,6872.5,56,6797.7,6.9z M7379.7-3436.5c70.1-79.5,65.4-163.6-16.4-245.5c-77.1-77.2-116.9-81.8-210.4-32.7c-72.5,35.1-95.8,77.1-95.8,163.6c0,88.8,25.7,130.9,102.9,166C7248.8-3347.7,7309.6-3361.7,7379.7-3436.5z"/>
</g>
</svg>
